<svg id="Layer_1" data-name="Layer 1" xmlns="http://www.w3.org/2000/svg" viewBox="0 0 512 512"><title>stethoscope-flat</title><path d="M0,256C0,114.61,114.61,0,256,0S512,114.63,512,256,397.38,512,256,512,0,397.39,0,256Z" fill="#00c7ff"/><path d="M390.12,245.9a42.36,42.36,0,1,0-49.41,41.4v44.23c0,34.82-28.24,63.07-62.61,63.07a62.66,62.66,0,0,1-62.58-63.07l-.46-50.36c16.44-2.33,32.45-11.77,46.56-28.69,2.37-2.37,3.31-5.19,2.37-8,18.81-24.93,30.58-58.35,30.58-84.24,0-39.52-17.87-43.76-47.54-50.81a11,11,0,0,0-9.85-6.13,11.16,11.16,0,0,0-11.32,11.3,11.47,11.47,0,0,0,11.32,11.3c2.33,0,4.7-1.42,6.58-2.82h0c28.69,7,36.71,8.46,36.71,37.16,0,22.6-10.83,53.17-27.3,75.29a9.93,9.93,0,0,0-7.52,3.31c-8.46,9.88-21.66,21.65-37.19,21.65-16,0-29.15-11.77-37.64-21.65a10.23,10.23,0,0,0-8-3.31c-16-22.12-26.85-52.69-26.85-75.29,0-28.7,7.52-30.57,36.71-37.16,1.87,1.4,3.75,2.82,6.61,2.82a11.46,11.46,0,0,0,11.28-11.3,11.15,11.15,0,0,0-11.28-11.3,12.33,12.33,0,0,0-10.38,6.13c-29.18,7.05-47,10.83-47,50.81,0,25.89,11.28,59.77,30.57,84.24a8.37,8.37,0,0,0,2.37,8.46c14.11,16.47,29.64,25.91,46.11,28.24v50.36a76.94,76.94,0,1,0,153.88,0V287.31a41.63,41.63,0,0,0,35.31-41.4Z" fill="#fff"/><path d="M347.74,224.73h0a21.07,21.07,0,0,1,21.17,21.17,21.39,21.39,0,0,1-21.17,21.17c-11.28,0-21.17-9.89-21.17-21.17a21.39,21.39,0,0,1,21.17-21.17Z" fill="#00c7ff"/></svg>
